<mxfile host="app.diagrams.net" modified="2020-12-10T09:43:29.530Z" agent="5.0 (Windows NT 6.1; Win64; x64) AppleWebKit/537.36 (KHTML, like Gecko) Chrome/87.0.4280.88 Safari/537.36" etag="aPj1oWfsIj7F8wqcRFAW" version="14.0.0" type="github">
  <diagram id="C5RBs43oDa-KdzZeNtuy" name="Page-1">
    <mxGraphModel dx="813" dy="477" grid="1" gridSize="10" guides="1" tooltips="1" connect="1" arrows="1" fold="1" page="1" pageScale="1" pageWidth="827" pageHeight="1169" math="0" shadow="0">
      <root>
        <mxCell id="WIyWlLk6GJQsqaUBKTNV-0" />
        <mxCell id="WIyWlLk6GJQsqaUBKTNV-1" parent="WIyWlLk6GJQsqaUBKTNV-0" />
        <mxCell id="WIyWlLk6GJQsqaUBKTNV-2" value="" style="rounded=0;html=1;jettySize=auto;orthogonalLoop=1;fontSize=11;endArrow=block;endFill=0;endSize=8;strokeWidth=1;shadow=0;labelBackgroundColor=none;edgeStyle=orthogonalEdgeStyle;" parent="WIyWlLk6GJQsqaUBKTNV-1" source="WIyWlLk6GJQsqaUBKTNV-3" target="WIyWlLk6GJQsqaUBKTNV-6" edge="1">
          <mxGeometry relative="1" as="geometry" />
        </mxCell>
        <mxCell id="q6LYqzbLJmbSk37GPmdO-24" value="PER 05" style="edgeLabel;html=1;align=center;verticalAlign=middle;resizable=0;points=[];labelBackgroundColor=#55FF4F;" vertex="1" connectable="0" parent="WIyWlLk6GJQsqaUBKTNV-2">
          <mxGeometry x="-0.2032" relative="1" as="geometry">
            <mxPoint x="-79" y="94" as="offset" />
          </mxGeometry>
        </mxCell>
        <mxCell id="WIyWlLk6GJQsqaUBKTNV-3" value="Маршрут оснастки детали" style="rounded=1;whiteSpace=wrap;html=1;fontSize=12;glass=0;strokeWidth=1;shadow=0;" parent="WIyWlLk6GJQsqaUBKTNV-1" vertex="1">
          <mxGeometry x="199" y="170" width="120" height="40" as="geometry" />
        </mxCell>
        <mxCell id="q6LYqzbLJmbSk37GPmdO-4" value="" style="edgeStyle=orthogonalEdgeStyle;rounded=0;orthogonalLoop=1;jettySize=auto;html=1;" edge="1" parent="WIyWlLk6GJQsqaUBKTNV-1" source="WIyWlLk6GJQsqaUBKTNV-6" target="q6LYqzbLJmbSk37GPmdO-3">
          <mxGeometry relative="1" as="geometry" />
        </mxCell>
        <mxCell id="q6LYqzbLJmbSk37GPmdO-23" value="PER 10" style="edgeLabel;html=1;align=center;verticalAlign=middle;resizable=0;points=[];labelBackgroundColor=#55FF4F;" vertex="1" connectable="0" parent="q6LYqzbLJmbSk37GPmdO-4">
          <mxGeometry x="-0.0959" relative="1" as="geometry">
            <mxPoint x="-79" y="187.71" as="offset" />
          </mxGeometry>
        </mxCell>
        <mxCell id="q6LYqzbLJmbSk37GPmdO-5" value="" style="edgeStyle=orthogonalEdgeStyle;rounded=0;orthogonalLoop=1;jettySize=auto;html=1;" edge="1" parent="WIyWlLk6GJQsqaUBKTNV-1" source="WIyWlLk6GJQsqaUBKTNV-6">
          <mxGeometry relative="1" as="geometry">
            <mxPoint x="330" y="340" as="targetPoint" />
          </mxGeometry>
        </mxCell>
        <mxCell id="WIyWlLk6GJQsqaUBKTNV-6" value="&amp;nbsp;ТП Цех 1" style="rhombus;whiteSpace=wrap;html=1;shadow=0;fontFamily=Helvetica;fontSize=12;align=center;strokeWidth=1;spacing=6;spacingTop=-4;" parent="WIyWlLk6GJQsqaUBKTNV-1" vertex="1">
          <mxGeometry x="209" y="300" width="100" height="80" as="geometry" />
        </mxCell>
        <mxCell id="q6LYqzbLJmbSk37GPmdO-7" value="" style="edgeStyle=orthogonalEdgeStyle;rounded=0;orthogonalLoop=1;jettySize=auto;html=1;entryX=0;entryY=0.5;entryDx=0;entryDy=0;" edge="1" parent="WIyWlLk6GJQsqaUBKTNV-1" target="q6LYqzbLJmbSk37GPmdO-6">
          <mxGeometry relative="1" as="geometry">
            <mxPoint x="419" y="340" as="sourcePoint" />
            <Array as="points">
              <mxPoint x="419" y="340" />
              <mxPoint x="464" y="340" />
              <mxPoint x="464" y="370" />
            </Array>
          </mxGeometry>
        </mxCell>
        <mxCell id="q6LYqzbLJmbSk37GPmdO-12" style="edgeStyle=orthogonalEdgeStyle;rounded=0;orthogonalLoop=1;jettySize=auto;html=1;entryX=0;entryY=0.5;entryDx=0;entryDy=0;" edge="1" parent="WIyWlLk6GJQsqaUBKTNV-1" target="q6LYqzbLJmbSk37GPmdO-10">
          <mxGeometry relative="1" as="geometry">
            <mxPoint x="419" y="340" as="sourcePoint" />
            <Array as="points">
              <mxPoint x="464" y="340" />
              <mxPoint x="464" y="550" />
            </Array>
          </mxGeometry>
        </mxCell>
        <mxCell id="q6LYqzbLJmbSk37GPmdO-14" style="edgeStyle=orthogonalEdgeStyle;rounded=0;orthogonalLoop=1;jettySize=auto;html=1;entryX=0;entryY=0.5;entryDx=0;entryDy=0;" edge="1" parent="WIyWlLk6GJQsqaUBKTNV-1" target="q6LYqzbLJmbSk37GPmdO-13">
          <mxGeometry relative="1" as="geometry">
            <mxPoint x="330" y="340" as="sourcePoint" />
            <Array as="points">
              <mxPoint x="464" y="340" />
              <mxPoint x="464" y="650" />
            </Array>
          </mxGeometry>
        </mxCell>
        <mxCell id="q6LYqzbLJmbSk37GPmdO-25" value="А" style="edgeLabel;html=1;align=center;verticalAlign=middle;resizable=0;points=[];fontStyle=0" vertex="1" connectable="0" parent="q6LYqzbLJmbSk37GPmdO-14">
          <mxGeometry x="-0.1959" y="1" relative="1" as="geometry">
            <mxPoint y="-28.57" as="offset" />
          </mxGeometry>
        </mxCell>
        <mxCell id="q6LYqzbLJmbSk37GPmdO-27" value="А" style="edgeLabel;html=1;align=center;verticalAlign=middle;resizable=0;points=[];" vertex="1" connectable="0" parent="q6LYqzbLJmbSk37GPmdO-14">
          <mxGeometry x="0.2958" relative="1" as="geometry">
            <mxPoint y="33.71" as="offset" />
          </mxGeometry>
        </mxCell>
        <mxCell id="q6LYqzbLJmbSk37GPmdO-28" value="А" style="edgeLabel;html=1;align=center;verticalAlign=middle;resizable=0;points=[];" vertex="1" connectable="0" parent="q6LYqzbLJmbSk37GPmdO-14">
          <mxGeometry x="0.7765" y="1" relative="1" as="geometry">
            <mxPoint y="18.29" as="offset" />
          </mxGeometry>
        </mxCell>
        <mxCell id="q6LYqzbLJmbSk37GPmdO-29" value="OP 05" style="edgeLabel;html=1;align=center;verticalAlign=middle;resizable=0;points=[];labelBackgroundColor=#FF6E6E;" vertex="1" connectable="0" parent="q6LYqzbLJmbSk37GPmdO-14">
          <mxGeometry x="0.0332" y="-2" relative="1" as="geometry">
            <mxPoint x="-32.03" y="-83.43" as="offset" />
          </mxGeometry>
        </mxCell>
        <mxCell id="q6LYqzbLJmbSk37GPmdO-40" value="...&lt;br&gt;" style="edgeLabel;html=1;align=center;verticalAlign=middle;resizable=0;points=[];" vertex="1" connectable="0" parent="q6LYqzbLJmbSk37GPmdO-14">
          <mxGeometry x="0.629" relative="1" as="geometry">
            <mxPoint as="offset" />
          </mxGeometry>
        </mxCell>
        <mxCell id="q6LYqzbLJmbSk37GPmdO-3" value="ТП Цех 2" style="rhombus;whiteSpace=wrap;html=1;shadow=0;strokeWidth=1;spacing=6;spacingTop=-4;" vertex="1" parent="WIyWlLk6GJQsqaUBKTNV-1">
          <mxGeometry x="209" y="650" width="100" height="80" as="geometry" />
        </mxCell>
        <mxCell id="q6LYqzbLJmbSk37GPmdO-35" style="edgeStyle=orthogonalEdgeStyle;rounded=0;orthogonalLoop=1;jettySize=auto;html=1;exitX=0.5;exitY=1;exitDx=0;exitDy=0;entryX=0;entryY=0.5;entryDx=0;entryDy=0;" edge="1" parent="WIyWlLk6GJQsqaUBKTNV-1" source="q6LYqzbLJmbSk37GPmdO-6" target="q6LYqzbLJmbSk37GPmdO-32">
          <mxGeometry relative="1" as="geometry">
            <Array as="points">
              <mxPoint x="569" y="425" />
            </Array>
          </mxGeometry>
        </mxCell>
        <mxCell id="q6LYqzbLJmbSk37GPmdO-37" style="edgeStyle=orthogonalEdgeStyle;rounded=0;orthogonalLoop=1;jettySize=auto;html=1;entryX=0;entryY=0.5;entryDx=0;entryDy=0;exitX=0.5;exitY=1;exitDx=0;exitDy=0;" edge="1" parent="WIyWlLk6GJQsqaUBKTNV-1" source="q6LYqzbLJmbSk37GPmdO-6" target="q6LYqzbLJmbSk37GPmdO-33">
          <mxGeometry relative="1" as="geometry">
            <mxPoint x="569" y="470" as="targetPoint" />
          </mxGeometry>
        </mxCell>
        <mxCell id="q6LYqzbLJmbSk37GPmdO-38" style="edgeStyle=orthogonalEdgeStyle;rounded=0;orthogonalLoop=1;jettySize=auto;html=1;exitX=0.5;exitY=1;exitDx=0;exitDy=0;entryX=0;entryY=0.5;entryDx=0;entryDy=0;" edge="1" parent="WIyWlLk6GJQsqaUBKTNV-1" source="q6LYqzbLJmbSk37GPmdO-6" target="q6LYqzbLJmbSk37GPmdO-34">
          <mxGeometry relative="1" as="geometry" />
        </mxCell>
        <mxCell id="q6LYqzbLJmbSk37GPmdO-6" value="О №1" style="ellipse;whiteSpace=wrap;html=1;shadow=0;strokeWidth=1;spacing=6;spacingTop=-4;" vertex="1" parent="WIyWlLk6GJQsqaUBKTNV-1">
          <mxGeometry x="509" y="330" width="120" height="80" as="geometry" />
        </mxCell>
        <mxCell id="q6LYqzbLJmbSk37GPmdO-10" value="О №2" style="ellipse;whiteSpace=wrap;html=1;" vertex="1" parent="WIyWlLk6GJQsqaUBKTNV-1">
          <mxGeometry x="499" y="510" width="120" height="80" as="geometry" />
        </mxCell>
        <mxCell id="q6LYqzbLJmbSk37GPmdO-13" value="О №M" style="ellipse;whiteSpace=wrap;html=1;" vertex="1" parent="WIyWlLk6GJQsqaUBKTNV-1">
          <mxGeometry x="499" y="610" width="120" height="80" as="geometry" />
        </mxCell>
        <mxCell id="q6LYqzbLJmbSk37GPmdO-16" value="ТП - тех. процесс" style="rhombus;whiteSpace=wrap;html=1;" vertex="1" parent="WIyWlLk6GJQsqaUBKTNV-1">
          <mxGeometry x="40" y="30" width="120" height="100" as="geometry" />
        </mxCell>
        <mxCell id="q6LYqzbLJmbSk37GPmdO-20" value="О - операция" style="ellipse;whiteSpace=wrap;html=1;" vertex="1" parent="WIyWlLk6GJQsqaUBKTNV-1">
          <mxGeometry x="210" y="40" width="120" height="80" as="geometry" />
        </mxCell>
        <mxCell id="q6LYqzbLJmbSk37GPmdO-30" value="OP 10" style="edgeLabel;html=1;align=center;verticalAlign=middle;resizable=0;points=[];labelBackgroundColor=#FF6E6E;" vertex="1" connectable="0" parent="WIyWlLk6GJQsqaUBKTNV-1">
          <mxGeometry x="429.9985714285717" y="549.9985683832261" as="geometry" />
        </mxCell>
        <mxCell id="q6LYqzbLJmbSk37GPmdO-31" value="OP N" style="edgeLabel;html=1;align=center;verticalAlign=middle;resizable=0;points=[];labelBackgroundColor=#FF6E6E;" vertex="1" connectable="0" parent="WIyWlLk6GJQsqaUBKTNV-1">
          <mxGeometry x="429.9985714285717" y="649.9985683832261" as="geometry" />
        </mxCell>
        <mxCell id="q6LYqzbLJmbSk37GPmdO-32" value="&lt;span style=&quot;background-color: rgb(255 , 255 , 255)&quot;&gt;П 1&lt;/span&gt;" style="triangle;whiteSpace=wrap;html=1;labelBackgroundColor=#55FF4F;align=left;" vertex="1" parent="WIyWlLk6GJQsqaUBKTNV-1">
          <mxGeometry x="670" y="410" width="80" height="30" as="geometry" />
        </mxCell>
        <mxCell id="q6LYqzbLJmbSk37GPmdO-33" value="&lt;span style=&quot;background-color: rgb(255 , 255 , 255)&quot;&gt;П 2&lt;/span&gt;" style="triangle;whiteSpace=wrap;html=1;labelBackgroundColor=#55FF4F;align=left;" vertex="1" parent="WIyWlLk6GJQsqaUBKTNV-1">
          <mxGeometry x="670" y="450" width="80" height="30" as="geometry" />
        </mxCell>
        <mxCell id="q6LYqzbLJmbSk37GPmdO-34" value="&lt;span style=&quot;background-color: rgb(255 , 255 , 255)&quot;&gt;П N&lt;/span&gt;" style="triangle;whiteSpace=wrap;html=1;labelBackgroundColor=#55FF4F;align=left;" vertex="1" parent="WIyWlLk6GJQsqaUBKTNV-1">
          <mxGeometry x="670" y="490" width="80" height="30" as="geometry" />
        </mxCell>
        <mxCell id="q6LYqzbLJmbSk37GPmdO-39" value="&lt;span style=&quot;background-color: rgb(255 , 255 , 255)&quot;&gt;П - переход&lt;/span&gt;" style="triangle;whiteSpace=wrap;html=1;labelBackgroundColor=#55FF4F;align=left;" vertex="1" parent="WIyWlLk6GJQsqaUBKTNV-1">
          <mxGeometry x="389" y="50" width="111" height="60" as="geometry" />
        </mxCell>
      </root>
    </mxGraphModel>
  </diagram>
</mxfile>
